<svg width="142" height="57" viewBox="0 0 142 57" fill="none" xmlns="http://www.w3.org/2000/svg">
<path d="M5.37305 28V49H1.43555V28H5.37305ZM4.8125 41.084H3.73242C3.74154 40.054 3.87826 39.1061 4.14258 38.2402C4.4069 37.3652 4.78516 36.6087 5.27734 35.9707C5.76953 35.3236 6.35742 34.8223 7.04102 34.4668C7.73372 34.1113 8.49935 33.9336 9.33789 33.9336C10.0671 33.9336 10.7279 34.0384 11.3203 34.248C11.9219 34.4486 12.4368 34.7767 12.8652 35.2324C13.3027 35.679 13.64 36.2669 13.877 36.9961C14.1139 37.7253 14.2324 38.6094 14.2324 39.6484V49H10.2676V39.6211C10.2676 38.9648 10.1719 38.4499 9.98047 38.0762C9.79818 37.6934 9.5293 37.4245 9.17383 37.2695C8.82747 37.1055 8.39909 37.0234 7.88867 37.0234C7.32357 37.0234 6.84049 37.1283 6.43945 37.3379C6.04753 37.5475 5.73307 37.8392 5.49609 38.2129C5.25911 38.5775 5.08594 39.0059 4.97656 39.498C4.86719 39.9902 4.8125 40.5189 4.8125 41.084ZM21.3828 34.207V49H17.4316V34.207H21.3828ZM17.1855 30.3516C17.1855 29.7773 17.3861 29.3034 17.7871 28.9297C18.1882 28.556 18.7259 28.3691 19.4004 28.3691C20.0658 28.3691 20.599 28.556 21 28.9297C21.4102 29.3034 21.6152 29.7773 21.6152 30.3516C21.6152 30.9258 21.4102 31.3997 21 31.7734C20.599 32.1471 20.0658 32.334 19.4004 32.334C18.7259 32.334 18.1882 32.1471 17.7871 31.7734C17.3861 31.3997 17.1855 30.9258 17.1855 30.3516ZM34.002 34.207H37.5703V48.5078C37.5703 49.8568 37.2695 51.0007 36.668 51.9395C36.0755 52.8874 35.2461 53.6029 34.1797 54.0859C33.1133 54.5781 31.8737 54.8242 30.4609 54.8242C29.8411 54.8242 29.1849 54.7422 28.4922 54.5781C27.8086 54.4141 27.1523 54.1589 26.5234 53.8125C25.9036 53.4661 25.3841 53.0286 24.9648 52.5L26.7012 50.1758C27.1569 50.7044 27.6855 51.1146 28.2871 51.4062C28.8887 51.707 29.554 51.8574 30.2832 51.8574C30.9941 51.8574 31.5957 51.7253 32.0879 51.4609C32.5801 51.2057 32.9583 50.8275 33.2227 50.3262C33.487 49.834 33.6191 49.237 33.6191 48.5352V37.625L34.002 34.207ZM24.0488 41.7812V41.4941C24.0488 40.3639 24.1855 39.3385 24.459 38.418C24.7415 37.4883 25.138 36.6908 25.6484 36.0254C26.168 35.36 26.7969 34.8451 27.5352 34.4805C28.2734 34.1159 29.1074 33.9336 30.0371 33.9336C31.0215 33.9336 31.8464 34.1159 32.5117 34.4805C33.1771 34.8451 33.724 35.3646 34.1523 36.0391C34.5807 36.7044 34.9134 37.4928 35.1504 38.4043C35.3965 39.3066 35.5879 40.2956 35.7246 41.3711V42C35.5879 43.0299 35.3828 43.987 35.1094 44.8711C34.8359 45.7552 34.4759 46.5299 34.0293 47.1953C33.5827 47.8516 33.0267 48.362 32.3613 48.7266C31.7051 49.0911 30.9212 49.2734 30.0098 49.2734C29.0983 49.2734 28.2734 49.0866 27.5352 48.7129C26.806 48.3392 26.1816 47.8151 25.6621 47.1406C25.1426 46.4661 24.7415 45.6732 24.459 44.7617C24.1855 43.8503 24.0488 42.8568 24.0488 41.7812ZM27.9863 41.4941V41.7812C27.9863 42.3919 28.0456 42.9616 28.1641 43.4902C28.2826 44.0189 28.4648 44.4883 28.7109 44.8984C28.9661 45.2995 29.2806 45.6139 29.6543 45.8418C30.0371 46.0605 30.4883 46.1699 31.0078 46.1699C31.7279 46.1699 32.3158 46.0195 32.7715 45.7188C33.2272 45.4089 33.569 44.985 33.7969 44.4473C34.0247 43.9095 34.1569 43.2897 34.1934 42.5879V40.7969C34.1751 40.2227 34.0977 39.7077 33.9609 39.252C33.8242 38.7871 33.6328 38.3906 33.3867 38.0625C33.1406 37.7344 32.8216 37.4792 32.4297 37.2969C32.0378 37.1146 31.5729 37.0234 31.0352 37.0234C30.5156 37.0234 30.0645 37.1419 29.6816 37.3789C29.3079 37.6068 28.9935 37.9212 28.7383 38.3223C28.4922 38.7233 28.3053 39.1973 28.1777 39.7441C28.0501 40.2819 27.9863 40.8652 27.9863 41.4941ZM44.4746 28V49H40.5371V28H44.4746ZM43.9141 41.084H42.834C42.8431 40.054 42.9798 39.1061 43.2441 38.2402C43.5085 37.3652 43.8867 36.6087 44.3789 35.9707C44.8711 35.3236 45.459 34.8223 46.1426 34.4668C46.8353 34.1113 47.6009 33.9336 48.4395 33.9336C49.1686 33.9336 49.8294 34.0384 50.4219 34.248C51.0234 34.4486 51.5384 34.7767 51.9668 35.2324C52.4043 35.679 52.7415 36.2669 52.9785 36.9961C53.2155 37.7253 53.334 38.6094 53.334 39.6484V49H49.3691V39.6211C49.3691 38.9648 49.2734 38.4499 49.082 38.0762C48.8997 37.6934 48.6309 37.4245 48.2754 37.2695C47.929 37.1055 47.5007 37.0234 46.9902 37.0234C46.4251 37.0234 45.9421 37.1283 45.541 37.3379C45.1491 37.5475 44.8346 37.8392 44.5977 38.2129C44.3607 38.5775 44.1875 39.0059 44.0781 39.498C43.9688 39.9902 43.9141 40.5189 43.9141 41.084Z" fill="#154DA0"/>
<path d="M61.5156 26.25V49H56.8281V26.25H61.5156ZM75.1406 26.25L66.125 37.4844L60.9219 43.0781L60.0781 38.6406L63.5938 33.8281L69.3906 26.25H75.1406ZM69.8125 49L63.1094 38.4844L66.5781 35.5781L75.3594 49H69.8125ZM81.6406 32.0938V49H77.125V32.0938H81.6406ZM76.8438 27.6875C76.8438 27.0312 77.0729 26.4896 77.5312 26.0625C77.9896 25.6354 78.6042 25.4219 79.375 25.4219C80.1354 25.4219 80.7448 25.6354 81.2031 26.0625C81.6719 26.4896 81.9062 27.0312 81.9062 27.6875C81.9062 28.3438 81.6719 28.8854 81.2031 29.3125C80.7448 29.7396 80.1354 29.9531 79.375 29.9531C78.6042 29.9531 77.9896 29.7396 77.5312 29.3125C77.0729 28.8854 76.8438 28.3438 76.8438 27.6875ZM89.7656 35.7031V49H85.2656V32.0938H89.4844L89.7656 35.7031ZM89.1094 39.9531H87.8906C87.8906 38.7031 88.0521 37.5781 88.375 36.5781C88.6979 35.5677 89.151 34.7083 89.7344 34C90.3177 33.2812 91.0104 32.7344 91.8125 32.3594C92.625 31.974 93.5312 31.7812 94.5312 31.7812C95.3229 31.7812 96.0469 31.8958 96.7031 32.125C97.3594 32.3542 97.9219 32.7188 98.3906 33.2188C98.8698 33.7188 99.2344 34.3802 99.4844 35.2031C99.7448 36.026 99.875 37.0312 99.875 38.2188V49H95.3438V38.2031C95.3438 37.4531 95.2396 36.8698 95.0312 36.4531C94.8229 36.0365 94.5156 35.7448 94.1094 35.5781C93.7135 35.401 93.224 35.3125 92.6406 35.3125C92.0365 35.3125 91.5104 35.4323 91.0625 35.6719C90.625 35.9115 90.2604 36.2448 89.9688 36.6719C89.6875 37.0885 89.474 37.5781 89.3281 38.1406C89.1823 38.7031 89.1094 39.3073 89.1094 39.9531ZM114 32.0938H118.078V48.4375C118.078 49.9792 117.734 51.2865 117.047 52.3594C116.37 53.4427 115.422 54.2604 114.203 54.8125C112.984 55.375 111.568 55.6562 109.953 55.6562C109.245 55.6562 108.495 55.5625 107.703 55.375C106.922 55.1875 106.172 54.8958 105.453 54.5C104.745 54.1042 104.151 53.6042 103.672 53L105.656 50.3438C106.177 50.9479 106.781 51.4167 107.469 51.75C108.156 52.0938 108.917 52.2656 109.75 52.2656C110.562 52.2656 111.25 52.1146 111.812 51.8125C112.375 51.5208 112.807 51.0885 113.109 50.5156C113.411 49.9531 113.562 49.2708 113.562 48.4688V36L114 32.0938ZM102.625 40.75V40.4219C102.625 39.1302 102.781 37.9583 103.094 36.9062C103.417 35.8438 103.87 34.9323 104.453 34.1719C105.047 33.4115 105.766 32.8229 106.609 32.4062C107.453 31.9896 108.406 31.7812 109.469 31.7812C110.594 31.7812 111.536 31.9896 112.297 32.4062C113.057 32.8229 113.682 33.4167 114.172 34.1875C114.661 34.9479 115.042 35.849 115.312 36.8906C115.594 37.9219 115.812 39.0521 115.969 40.2812V41C115.812 42.1771 115.578 43.2708 115.266 44.2812C114.953 45.2917 114.542 46.1771 114.031 46.9375C113.521 47.6875 112.885 48.2708 112.125 48.6875C111.375 49.1042 110.479 49.3125 109.438 49.3125C108.396 49.3125 107.453 49.099 106.609 48.6719C105.776 48.2448 105.062 47.6458 104.469 46.875C103.875 46.1042 103.417 45.1979 103.094 44.1562C102.781 43.1146 102.625 41.9792 102.625 40.75ZM107.125 40.4219V40.75C107.125 41.4479 107.193 42.099 107.328 42.7031C107.464 43.3073 107.672 43.8438 107.953 44.3125C108.245 44.7708 108.604 45.1302 109.031 45.3906C109.469 45.6406 109.984 45.7656 110.578 45.7656C111.401 45.7656 112.073 45.5938 112.594 45.25C113.115 44.8958 113.505 44.4115 113.766 43.7969C114.026 43.1823 114.177 42.474 114.219 41.6719V39.625C114.198 38.9688 114.109 38.3802 113.953 37.8594C113.797 37.3281 113.578 36.875 113.297 36.5C113.016 36.125 112.651 35.8333 112.203 35.625C111.755 35.4167 111.224 35.3125 110.609 35.3125C110.016 35.3125 109.5 35.4479 109.062 35.7188C108.635 35.9792 108.276 36.3385 107.984 36.7969C107.703 37.2552 107.49 37.7969 107.344 38.4219C107.198 39.0365 107.125 39.7031 107.125 40.4219Z" fill="#212121"/>
<path d="M123.402 9.73332C124.226 9.48841 124.909 8.82645 125.147 7.93876C125.515 6.56688 124.702 5.15798 123.33 4.79038C121.958 4.42279 120.549 5.23622 120.181 6.6081C119.942 7.502 120.204 8.41057 120.795 9.03473L115.332 15.1956C114.464 16.174 112.913 16.1043 112.137 15.0514L107.792 9.14335C108.214 8.81061 108.538 8.34528 108.688 7.78659C109.055 6.41471 108.242 5.00581 106.87 4.63821C105.498 4.27061 104.089 5.08404 103.722 6.45593C103.354 7.82781 104.168 9.23671 105.54 9.60431C105.552 9.60764 105.571 9.61263 105.583 9.61595L104.238 25.9821C104.074 27.9607 105.35 29.7795 107.274 30.2952L124.482 34.9059C126.4 35.4199 128.412 34.4888 129.267 32.6886L136.286 17.8428C136.298 17.8461 136.317 17.8511 136.329 17.8544C137.701 18.222 139.11 17.4086 139.478 16.0367C139.845 14.6648 139.032 13.2559 137.66 12.8883C136.288 12.5207 134.879 13.3341 134.512 14.706C134.362 15.2647 134.41 15.8299 134.609 16.3289L127.892 19.2729C126.694 19.7968 125.315 19.0815 125.053 17.8003L123.402 9.73332Z" fill="#DBCE58"/>
</svg>
